# xmcd
#
# Track frame offsets:
#	150
#	52163
#	103393
#	153282
#	228802
#	274677
#	305301
#	330064
#
# Disc length: 4779 seconds
#
# Revision: 1
# Processed by: cddbd v1.5.2PL0 Copyright (c) Steve Scherf et al.
# Submitted via: audiograbber 1.83.01
#
DISCID=5e12a908
DTITLE=Grateful Dead - 77-05-28 Hartford Civic Centre, Hartford Ct
DYEAR=1900
DGENRE=
TTITLE0=Estimated Prophet
TTITLE1=Playing In The Band
TTITLE2=Terrapin Station
TTITLE3=Drums > Not Fade Away
TTITLE4=Wharf Rat
TTITLE5=Playing In The Band
TTITLE6=One More Saturday Night
TTITLE7=US Blues
EXTD=
EXTT0=
EXTT1=
EXTT2=
EXTT3=
EXTT4=
EXTT5=
EXTT6=
EXTT7=
PLAYORDER=
